<?xml version="1.0" encoding="UTF-8" standalone="no"?>
<!-- Uploaded to: SVG Repo, www.svgrepo.com, Generator: SVG Repo Mixer Tools -->

<svg
   fill="#000000"
   height="1390"
   width="1390"
   version="1.1"
   id="Layer_1"
   viewBox="0 0 889.6 889.6"
   xml:space="preserve"
   sodipodi:docname="IatePDFs.svg"
   inkscape:version="1.4.2 (ebf0e940d0, 2025-05-08)"
   xmlns:inkscape="http://www.inkscape.org/namespaces/inkscape"
   xmlns:sodipodi="http://sodipodi.sourceforge.net/DTD/sodipodi-0.dtd"
   xmlns="http://www.w3.org/2000/svg"
   xmlns:svg="http://www.w3.org/2000/svg"><defs
   id="defs8">
	

	
	
	

		
	<filter
   style="color-interpolation-filters:sRGB;"
   inkscape:label="Drop Shadow"
   id="filter2"
   x="-0.054403996"
   y="-0.050163733"
   width="1.1174589"
   height="1.1083041"><feFlood
     result="flood"
     in="SourceGraphic"
     flood-opacity="0.498039"
     flood-color="rgb(0,0,0)"
     id="feFlood1" /><feGaussianBlur
     result="blur"
     in="SourceGraphic"
     stdDeviation="15.722050"
     id="feGaussianBlur1" /><feOffset
     result="offset"
     in="blur"
     dx="6.000000"
     dy="6.000000"
     id="feOffset1" /><feComposite
     result="comp1"
     operator="in"
     in="flood"
     in2="offset"
     id="feComposite1" /><feComposite
     result="comp2"
     operator="over"
     in="SourceGraphic"
     in2="comp1"
     id="feComposite2" /></filter><filter
   style="color-interpolation-filters:sRGB;"
   inkscape:label="Drop Shadow"
   id="filter7"
   x="-0.12064194"
   y="-0.12064194"
   width="1.2418821"
   height="1.2412839"><feFlood
     result="flood"
     in="SourceGraphic"
     flood-opacity="0.498039"
     flood-color="rgb(0,0,0)"
     id="feFlood6" /><feGaussianBlur
     result="blur"
     in="SourceGraphic"
     stdDeviation="4.027562"
     id="feGaussianBlur6" /><feOffset
     result="offset"
     in="blur"
     dx="0.047929"
     dy="0.000000"
     id="feOffset6" /><feComposite
     result="comp1"
     operator="out"
     in="flood"
     in2="offset"
     id="feComposite6" /><feComposite
     result="comp2"
     operator="atop"
     in="comp1"
     in2="SourceGraphic"
     id="feComposite7" /></filter></defs><sodipodi:namedview
   id="namedview8"
   pagecolor="#ffffff"
   bordercolor="#000000"
   borderopacity="0.25"
   inkscape:showpageshadow="2"
   inkscape:pageopacity="0.0"
   inkscape:pagecheckerboard="0"
   inkscape:deskcolor="#d1d1d1"
   inkscape:zoom="0.25718702"
   inkscape:cx="589.0655"
   inkscape:cy="863.18509"
   inkscape:window-width="1920"
   inkscape:window-height="1011"
   inkscape:window-x="0"
   inkscape:window-y="0"
   inkscape:window-maximized="1"
   inkscape:current-layer="g1" />




<g
   id="g11"
   transform="translate(976.70216,383.86088)"><g
     id="g1"
     transform="translate(0,63.582395)"><g
       id="g2"
       transform="matrix(1.0411655,0,0,1.0411655,20.54649,-2.7691276)"><path
         style="fill:#e2e5e7;stroke-width:0.982856"
         d="m -512.25975,-261.20061 c -17.29823,0 -31.45132,14.1531 -31.45132,31.45133 v 440.31864 c 0,17.29822 14.15309,31.45133 31.45132,31.45133 h 314.5133 c 17.29824,0 31.45133,-14.15311 31.45133,-31.45133 v -345.96464 l -125.80531,-125.80533 z"
         id="path1" /><path
         style="fill:#b0b7bd;stroke-width:0.982856"
         d="m -260.6491,-135.39528 h 94.35398 l -125.80531,-125.80533 v 94.35399 c 0,17.29824 14.15309,31.45134 31.45133,31.45134 z"
         id="path2" /><polygon
         style="fill:#cad1d8"
         points="384,128 480,128 480,224 "
         id="polygon2"
         transform="matrix(0.98285405,0,0,0.98285405,-638.06509,-261.20061)" /><path
         style="fill:#f15642;stroke-width:0.982856"
         d="m -480.80842,121.24758 c 0,8.64912 7.07654,15.72566 15.72567,15.72566 h 345.96463 c 8.64913,0 15.72567,-7.07654 15.72567,-15.72566 V -36.009066 c 0,-8.649125 -7.07654,-15.725666 -15.72567,-15.725666 h -345.96463 c -8.64913,0 -15.72567,7.076541 -15.72567,15.725666 z"
         id="path3" /><path
         style="fill:#ffffff;stroke-width:0.982856"
         d="m -411.00219,10.334475 c 0,-4.1515794 3.27093,-8.6805702 8.53903,-8.6805702 h 29.0453 c 16.3547,0 31.07392,10.9450572 31.07392,31.9230942 0,19.877246 -14.71922,30.948112 -31.07392,30.948112 h -20.99376 v 16.606302 c 0,5.535435 -3.52255,8.664842 -8.05154,8.664842 -4.15158,0 -8.53903,-3.129407 -8.53903,-8.664842 z m 16.59057,7.155176 v 31.325524 h 20.99376 c 8.42895,0 15.09664,-7.438239 15.09664,-15.238176 0,-8.790648 -6.66769,-16.087348 -15.09664,-16.087348 z"
         id="path4" /><path
         style="fill:#ffffff;stroke-width:0.982856"
         d="m -317.71755,89.796255 c -4.15156,0 -8.68058,-2.264497 -8.68058,-7.784204 V 10.586078 c 0,-4.5132616 4.52902,-7.7999367 8.68058,-7.7999367 h 28.7937 c 57.46158,0 56.20352,87.0101137 1.13224,87.0101137 z m 7.92574,-71.66186 v 56.329336 h 20.86796 c 33.9517,0 35.46137,-56.329336 0,-56.329336 z"
         id="path5" /><path
         style="fill:#ffffff;stroke-width:0.982856"
         d="m -212.33987,19.140839 v 19.987324 h 32.06463 c 4.529,0 9.05798,4.52899 9.05798,8.916442 0,4.151579 -4.52898,7.548333 -9.05798,7.548333 h -32.06463 v 26.403387 c 0,4.403187 -3.1294,7.784205 -7.53258,7.784205 -5.53545,0 -8.91646,-3.381018 -8.91646,-7.784205 V 10.570348 c 0,-4.5132614 3.39674,-7.7999216 8.91646,-7.7999216 h 44.14194 c 5.53543,0 8.80636,3.2866602 8.80636,7.7999216 0,4.02577 -3.27093,8.554761 -8.80636,8.554761 h -36.60936 z"
         id="path6-5" /><path
         style="fill:#cad1d8;stroke-width:0.982856"
         d="m -465.08275,136.97324 h 298.78763 v 15.72567 h -298.78763 c -8.64913,0 -15.72567,-7.07655 -15.72567,-15.72567 v -15.72566 c 0,8.64912 7.07654,15.72566 15.72567,15.72566 z"
         id="path7" /><path
         d="M -295.09434,168.74623 -552.17539,-2.643276 -295.09434,-174.03278 c 5.92935,-3.95183 10.05656,-10.10966 11.43873,-17.09615 1.39827,-6.99615 -0.0354,-14.25457 -4.00492,-20.18392 -70.04675,-104.83279 -187.03591,-167.42803 -312.94403,-167.42803 -207.37429,0 -376.0976,168.71366 -376.0976,376.097604 0,207.383946 168.72331,376.097606 376.0976,376.097606 125.90812,0 242.89728,-62.59524 312.94242,-167.42803 3.97113,-5.92935 5.4048,-13.18616 4.00492,-20.18392 -1.38217,-6.98649 -5.50938,-13.14271 -11.43712,-17.09615 z M -520.0121,-244.42065 c 14.83544,0 26.86469,12.02764 26.86469,26.86469 0,14.83543 -12.02764,26.86469 -26.86469,26.86469 -14.83543,0 -26.86469,-12.02765 -26.86469,-26.86469 0,-14.83705 12.02926,-26.86469 26.86469,-26.86469 z"
         id="path6"
         style="fill:#f15642;fill-opacity:1;stroke-width:1.60905;filter:url(#filter2)"
         transform="matrix(0.92138116,0,0,0.92138116,-23.138159,-0.20781029)" /><circle
         style="fill:#ffffff;stroke:none;stroke-width:11.6366;stroke-linecap:round;stroke-linejoin:round;filter:url(#filter7)"
         id="path8"
         cx="-506.81549"
         cy="-217.55595"
         r="40.061314"
         transform="matrix(0.92138116,0,0,0.92138116,-23.138159,-0.20781029)" /></g></g></g></svg>
